<svg xmlns="http://www.w3.org/2000/svg" viewBox="0 0 600 600" width="100%" height="100%">
  <defs>
    <linearGradient id="bgGrad" x1="0%" y1="0%" x2="100%" y2="100%">
      <stop offset="0%" stop-color="#4C1D95" />
      <stop offset="100%" stop-color="#6D28D9" />
    </linearGradient>

    <linearGradient id="cardGrad" x1="0%" y1="0%" x2="100%" y2="100%">
      <stop offset="0%" stop-color="#EAB308" />
      <stop offset="100%" stop-color="#FACC15" />
    </linearGradient>

    <linearGradient id="goldGrad" x1="0%" y1="0%" x2="100%" y2="100%">
      <stop offset="0%" stop-color="#FFF056" />
      <stop offset="50%" stop-color="#FFD700" />
      <stop offset="100%" stop-color="#FF914D" />
    </linearGradient>

    <pattern id="grid" width="40" height="40" patternUnits="userSpaceOnUse">
      <path d="M 40 0 L 0 0 0 40" fill="none" stroke="#FFFFFF" stroke-opacity="0.05" stroke-width="1.5"/>
    </pattern>
  </defs>

  <rect width="600" height="600" fill="url(#bgGrad)" />
  <rect width="600" height="600" fill="url(#grid)" />

  <rect x="20" y="20" width="560" height="560" fill="none" stroke="#000000" stroke-width="8" rx="16" />
  <rect x="24" y="24" width="552" height="552" fill="none" stroke="#A78BFA" stroke-width="3" rx="12" opacity="0.8" />

  <g transform="translate(40, 45)">
    <rect width="520" height="44" fill="#000000" rx="8" />
    <rect x="-3" y="-3" width="520" height="44" fill="url(#goldGrad)" rx="8" stroke="#000" stroke-width="3"/>
    <text x="20" y="27" font-family="'Impact', 'Arial Black', sans-serif" font-size="17" font-weight="900" fill="#000000" letter-spacing="1">
      ★ POKÉVAULT LEGENDS #55 — SWITCH &amp; TCG GAMING GEAR
    </text>
    <text x="490" y="27" font-family="'Courier New', monospace" font-size="16" font-weight="900" fill="#000000" text-anchor="end">
      $18.99
    </text>
  </g>

  <g transform="translate(80, 110)">
    <rect x="15" y="15" width="410" height="370" fill="#000000" rx="16" />
    <rect x="0" y="0" width="410" height="370" fill="url(#cardGrad)" rx="16" stroke="#000000" stroke-width="5" />
    <path d="M0,0 L410,370 M410,0 L0,370" stroke="#FFFFFF" stroke-opacity="0.1" stroke-width="4" />

    <circle cx="205" cy="135" r="70" fill="#000000" opacity="0.3"/>
    <circle cx="205" cy="135" r="65" fill="#FFFFFF" opacity="0.95" stroke="#000000" stroke-width="4"/>
    <text x="205" y="158" font-size="70" text-anchor="middle">⚡</text>

    <g transform="translate(20, 240)">
      <rect width="370" height="105" fill="#000000" rx="10" />
      <rect x="-3" y="-3" width="370" height="105" fill="#FFFFFF" rx="10" stroke="#000000" stroke-width="4" />
      <text x="185" y="32" font-family="'Impact', 'Arial Black', sans-serif" font-size="18" font-weight="900" fill="#000000" text-anchor="middle">
        Pikachu &amp; Eevee Silicone Pro Con
      </text>
      <text x="185" y="55" font-family="'Trebuchet MS', sans-serif" font-size="13" font-weight="700" fill="#EF4444" text-anchor="middle">
        Gaming Gear &amp; Accessories • SKU: GAME-GRIPS-PIKA
      </text>
      <text x="185" y="80" font-family="'Courier New', monospace" font-size="13" font-weight="800" fill="#15803D" text-anchor="middle">
        ★ RATING 4.8 (78 REVIEWS) • In Stock
      </text>
    </g>
  </g>

  <g transform="translate(40, 510)">
    <rect width="520" height="45" fill="#000000" rx="8"/>
    <text x="20" y="28" font-family="'Courier New', monospace" font-size="12" font-weight="700" fill="#FFF056">
      GUARANTEED 100% AUTHENTIC • CLIMATE CONTROLLED VAULT DISPATCH
    </text>
    <text x="500" y="28" font-family="'Impact', sans-serif" font-size="16" fill="#FFFFFF" text-anchor="end">
      POKÉVAULT.COM
    </text>
  </g>
</svg>